<?xml version="1.0" standalone="no"?>
<!DOCTYPE svg PUBLIC "-//W3C//DTD SVG 20010904//EN"
 "http://www.w3.org/TR/2001/REC-SVG-20010904/DTD/svg10.dtd">
<svg version="1.0" xmlns="http://www.w3.org/2000/svg"
 width="128.000000pt" height="128.000000pt" viewBox="0 0 128.000000 128.000000"
 preserveAspectRatio="xMidYMid meet">

<g transform="translate(0.000000,128.000000) scale(0.100000,-0.100000)"
fill="#000000" stroke="none">
<path d="M543 1245 c-157 -43 -277 -164 -312 -316 -17 -70 -14 -100 9 -106 30
-8 24 -39 -9 -53 -61 -25 -65 -109 -6 -140 36 -18 45 -29 45 -56 0 -39 60
-141 111 -189 27 -25 74 -58 105 -72 81 -37 71 -53 -41 -74 -50 -9 -145 -27
-213 -39 l-123 -22 -46 -70 c-31 -45 -43 -72 -36 -79 6 -6 69 -8 159 -7 l149
3 3 38 c3 32 0 37 -17 37 -14 0 -21 -6 -21 -20 0 -19 -7 -20 -111 -20 l-110 0
18 31 c10 17 24 35 31 41 7 6 103 28 215 48 l202 38 22 -24 c40 -44 106 -44
146 0 l22 24 202 -37 c111 -21 207 -42 215 -48 7 -6 21 -25 31 -42 l18 -31
-110 0 c-104 0 -111 1 -111 20 0 14 -7 20 -21 20 -17 0 -20 -5 -17 -37 l3 -38
149 -3 c90 -1 153 1 159 7 7 7 -5 34 -36 79 l-46 70 -123 22 c-68 12 -163 30
-213 39 -112 21 -122 37 -41 74 31 14 78 47 105 72 51 48 111 150 111 189 0
27 9 38 45 56 59 31 55 115 -6 140 -33 14 -39 45 -9 53 23 6 26 36 9 106 -25
112 -113 227 -210 276 -103 53 -200 66 -296 40z m252 -64 c74 -34 124 -76 163
-139 28 -44 69 -158 60 -168 -3 -2 -36 3 -74 11 -38 8 -79 15 -91 15 -21 0
-47 -19 -55 -39 -1 -5 -15 -13 -30 -16 -24 -6 -28 -4 -28 14 0 12 -9 30 -21
42 -27 27 -69 20 -116 -21 -42 -37 -63 -39 -63 -5 0 15 -9 31 -24 40 -22 15
-32 14 -135 -16 -61 -18 -114 -29 -117 -26 -11 10 27 121 58 169 52 82 147
148 242 168 67 15 164 2 231 -29z m-324 -332 c-47 -39 -34 -52 43 -44 67 8
101 22 130 54 21 23 41 27 52 9 4 -7 -6 -23 -26 -40 -47 -39 -31 -56 37 -39
113 28 122 32 128 52 6 19 12 20 53 14 103 -15 94 0 90 -149 -3 -109 -7 -139
-26 -180 -34 -75 -84 -129 -154 -167 -59 -32 -69 -34 -158 -34 -89 0 -99 2
-158 34 -70 38 -120 92 -154 167 -19 41 -23 71 -26 179 l-4 130 94 26 c51 14
97 24 102 21 5 -3 -5 -18 -23 -33z m-215 -186 c-9 -10 -36 19 -36 38 0 10 8
22 18 28 15 8 17 5 20 -26 2 -19 1 -37 -2 -40z m804 39 c0 -19 -18 -42 -32
-42 -4 0 -8 18 -8 40 0 38 2 40 20 30 11 -6 20 -19 20 -28z m-360 -442 c0 -26
-34 -60 -60 -60 -11 0 -29 9 -40 20 -11 11 -20 29 -20 40 0 18 7 20 60 20 53
0 60 -2 60 -20z"/>
<path d="M435 771 c-32 -13 -50 -40 -37 -53 7 -7 17 -6 33 6 30 20 63 20 95 0
19 -13 28 -14 37 -5 30 30 -77 74 -128 52z"/>
<path d="M755 771 c-32 -13 -50 -40 -37 -53 7 -7 17 -6 33 6 30 20 63 20 95 0
19 -13 28 -14 37 -5 30 30 -77 74 -128 52z"/>
<path d="M343 664 c-3 -9 0 -40 6 -69 50 -223 320 -308 494 -156 48 42 88 126
90 188 l2 48 -293 3 c-261 2 -293 1 -299 -14z m97 -54 c0 -25 -4 -30 -25 -30
-14 0 -25 3 -25 8 0 4 -3 17 -6 30 -6 19 -3 22 25 22 28 0 31 -3 31 -30z m80
0 c0 -23 -4 -30 -20 -30 -16 0 -20 7 -20 30 0 23 4 30 20 30 16 0 20 -7 20
-30z m100 0 c0 -27 -3 -30 -30 -30 -27 0 -30 3 -30 30 0 27 3 30 30 30 27 0
30 -3 30 -30z m100 0 c0 -27 -3 -30 -30 -30 -27 0 -30 3 -30 30 0 27 3 30 30
30 27 0 30 -3 30 -30z m80 0 c0 -23 -4 -30 -20 -30 -16 0 -20 7 -20 30 0 23 4
30 20 30 16 0 20 -7 20 -30z m100 23 c-1 -33 -15 -53 -36 -53 -20 0 -24 5 -24
30 0 27 3 30 30 30 17 0 30 -3 30 -7z m-30 -98 c0 -12 -76 -88 -103 -101 -27
-15 -30 -14 -52 10 -43 46 -107 46 -150 0 -22 -24 -25 -25 -52 -10 -27 13
-103 89 -103 101 0 3 104 5 230 5 127 0 230 -2 230 -5z m-199 -105 c33 -18 21
-30 -31 -30 -51 0 -64 11 -32 29 22 13 39 13 63 1z"/>
</g>
</svg>
