<?xml version="1.0" standalone="no"?>
<!DOCTYPE svg PUBLIC "-//W3C//DTD SVG 20010904//EN"
 "http://www.w3.org/TR/2001/REC-SVG-20010904/DTD/svg10.dtd">
<svg version="1.0" xmlns="http://www.w3.org/2000/svg"
 width="128.000000pt" height="128.000000pt" viewBox="0 0 128.000000 128.000000"
 preserveAspectRatio="xMidYMid meet">

<g transform="translate(0.000000,128.000000) scale(0.100000,-0.100000)"
fill="#000000" stroke="none">
<path d="M524 1265 c-194 -42 -358 -199 -409 -391 -10 -38 -16 -97 -15 -169 1
-60 -2 -124 -5 -141 -9 -42 19 -100 57 -120 l30 -15 -60 -54 c-65 -60 -97
-119 -107 -200 -7 -63 14 -169 35 -172 42 -8 174 132 187 199 3 15 8 28 12 28
4 0 24 -23 45 -51 42 -57 131 -119 209 -146 70 -24 204 -24 274 0 78 27 167
89 209 146 21 28 41 51 45 51 4 0 9 -13 12 -28 13 -67 145 -207 187 -199 21 3
42 109 35 172 -10 81 -42 140 -107 200 l-60 54 30 15 c16 8 37 32 47 53 15 32
16 43 6 82 -7 28 -9 74 -5 116 13 153 -45 305 -160 421 -135 134 -312 188
-492 149z m257 -55 c211 -65 349 -253 349 -475 0 -75 -12 -138 -30 -158 -11
-12 -126 30 -184 67 -65 42 -136 118 -176 190 -18 31 -38 56 -46 56 -24 0 -36
-51 -31 -127 l5 -71 -27 8 c-84 24 -193 113 -236 194 -28 52 -51 47 -60 -11
-10 -70 -48 -146 -86 -175 -38 -28 -97 -51 -110 -42 -14 8 -10 112 6 182 43
180 190 330 365 372 67 16 194 11 261 -10z m-231 -519 c42 -22 81 -35 121 -38
67 -6 68 -4 44 62 -17 47 -19 75 -6 75 5 0 13 -9 16 -20 4 -11 36 -50 71 -85
50 -50 86 -75 155 -108 l90 -42 -4 -85 c-3 -55 -12 -105 -26 -143 -31 -80
-114 -167 -199 -209 -62 -31 -73 -33 -172 -33 -99 0 -110 2 -172 33 -85 41
-167 128 -199 209 -18 47 -23 83 -27 190 l-4 133 55 52 c39 38 60 68 73 105
l18 52 52 -58 c31 -34 78 -71 114 -90z m-360 -141 c0 -38 -3 -70 -7 -70 -20 0
-43 37 -43 68 0 33 22 72 42 72 4 0 8 -31 8 -70z m934 -51 c-23 -26 -34 -24
-34 6 0 17 4 23 14 19 8 -3 18 0 22 7 6 10 8 11 12 0 2 -6 -4 -21 -14 -32z
m-921 -171 c7 -56 -4 -115 -33 -166 -24 -43 -93 -106 -104 -95 -3 4 -6 36 -6
73 0 51 6 78 26 118 23 47 83 112 103 112 5 0 11 -19 14 -42z m931 12 c55 -48
86 -121 86 -200 0 -37 -3 -69 -6 -73 -11 -11 -74 45 -101 90 -14 24 -29 62
-35 85 -9 44 -1 128 13 128 4 0 24 -14 43 -30z"/>
<path d="M374 545 c-63 -27 -54 -67 10 -44 29 11 41 11 56 1 29 -18 50 -15 50
8 0 35 -68 56 -116 35z"/>
<path d="M830 547 c-24 -8 -36 -19 -38 -34 -4 -26 16 -30 48 -11 15 10 27 10
55 0 53 -20 77 4 33 32 -36 22 -60 26 -98 13z"/>
<path d="M423 390 c-40 -24 -53 -48 -53 -98 0 -49 32 -86 86 -101 158 -45 364
-28 428 35 20 20 26 37 26 68 0 50 -21 83 -66 102 -29 12 -42 12 -96 -1 -79
-19 -137 -19 -213 0 -77 18 -74 18 -112 -5z m95 -36 c15 -4 22 -14 22 -30 0
-29 -9 -34 -37 -23 -16 6 -23 17 -23 34 0 27 3 28 38 19z m282 -23 c0 -23 -5
-30 -25 -33 -30 -6 -35 -2 -35 28 0 21 13 30 48 33 7 1 12 -11 12 -28z m-350
4 c0 -8 -4 -15 -9 -15 -13 0 -22 16 -14 24 11 11 23 6 23 -9z m402 0 c0 -5 -5
-11 -11 -13 -6 -2 -11 4 -11 13 0 9 5 15 11 13 6 -2 11 -8 11 -13z m-232 -26
c0 -24 -3 -30 -16 -25 -9 3 -20 6 -25 6 -5 0 -9 11 -9 25 0 20 5 25 25 25 21
0 25 -5 25 -31z m90 6 c0 -14 -4 -25 -9 -25 -5 0 -16 -3 -25 -6 -13 -5 -16 1
-16 25 0 26 4 31 25 31 20 0 25 -5 25 -25z m-261 -55 c3 -25 3 -25 -18 -6 -26
23 -27 39 -3 34 9 -2 19 -14 21 -28z m421 22 c0 -5 -9 -17 -20 -27 -19 -18
-20 -17 -20 2 0 11 3 23 7 26 9 10 33 9 33 -1z m-352 -18 c24 -7 31 -44 8 -44
-28 0 -46 12 -46 31 0 21 4 22 38 13z m282 -13 c0 -19 -18 -31 -46 -31 -20 0
-17 38 4 43 34 9 42 7 42 -12z m-180 -21 c0 -15 -7 -20 -25 -20 -18 0 -25 5
-25 20 0 15 7 20 25 20 18 0 25 -5 25 -20z m90 0 c0 -15 -7 -20 -25 -20 -18 0
-25 5 -25 20 0 15 7 20 25 20 18 0 25 -5 25 -20z"/>
</g>
</svg>
